# xmcd
# Copyright (C) 1995-1998 Ti Kan
#
# Track frame offsets:
#       150
#       14175
#       33075
#       55800
#       77112
#       99975
#       120300
#       134175
#       155775
#       174600
#
# Disc length: 2610 seconds
#
# Revision: 0
# Processed by: cddbd v1.5PL3 Copyright (c) Steve Scherf et al.
# Submitted via: CD-Transfer v1.0
#
DISCID=840a300a
DTITLE=Piero Esteriore - Passa Il Tempo
DYEAR=1996
DGENRE=
TTITLE0=Donna Provocante
TTITLE1=Passa Il Tempo
TTITLE2=Vedrai Tornerà
TTITLE3=Mezzo Il Mare
TTITLE4=So Che Sei Triste
TTITLE5=Sto Perdendo La Testa
TTITLE6=Siamo Seri
TTITLE7=Porto Jeans
TTITLE8=Sento
TTITLE9=Noi Prigionieri
EXTD=
EXTT0=
EXTT1=
EXTT2=
EXTT3=
EXTT4=
EXTT5=
EXTT6=
EXTT7=
EXTT8=
EXTT9=
PLAYORDER=
